<svg width="50" height="50" viewBox="0 0 50 50" fill="none" xmlns="http://www.w3.org/2000/svg">
<g clip-path="url(#clip0)">
<path fill-rule="evenodd" clip-rule="evenodd" d="M45.6353 14.5932L44.0012 16.2273C40.4608 13.1413 35.9212 11.4153 31.2012 11.4153C28.0234 11.4153 24.8472 12.2324 22.1238 13.6843L29.0225 6.78556C29.5672 7.14811 30.2021 7.33024 30.8387 7.33024C31.7459 7.33024 32.6548 6.96769 33.38 6.24088C34.8319 4.78897 34.8319 2.51833 33.38 1.06641C32.6531 0.339604 31.7459 -0.0229492 30.8387 -0.0229492C29.9314 -0.0229492 29.0225 0.339604 28.2974 1.06641C27.1178 2.3379 26.9357 4.15237 27.7527 5.51407L19.0378 14.229L17.4038 12.5949L12.9561 17.0426L14.5902 18.6766L5.69315 27.5736C5.14847 27.2111 4.51357 27.029 3.87698 27.029C2.96974 27.029 2.06081 27.3915 1.3357 28.1183C-0.116214 29.5702 -0.116214 31.8409 1.3357 33.2928C2.06251 33.9277 2.96974 34.2919 3.87698 34.2919C4.78421 34.2919 5.69315 33.9294 6.41825 33.2026C7.59783 32.023 7.77996 30.2068 6.96294 28.7549L13.8617 21.8562C10.231 28.8468 11.048 37.5617 16.4029 43.7336L14.7689 45.4579L19.3085 49.9056L23.7561 45.4579L19.3085 41.0102L17.7646 42.5541C12.5 36.3805 12.2276 27.4851 16.6753 20.949L17.4021 21.6758L21.9417 17.2281L21.1246 16.5013C24.0302 14.4128 27.5706 13.3234 31.2012 13.3234C35.4685 13.3234 39.4617 14.8673 42.7297 17.5907L41.0957 19.1345L45.6353 23.5822L50.0829 19.1345L45.6353 14.5949V14.5932ZM21.2149 45.4579L19.3085 47.3643L17.4021 45.4579L19.3085 43.5515L21.2149 45.4579ZM29.5672 2.42811C29.9297 2.06556 30.3842 1.88343 30.8387 1.88343C31.2931 1.88343 31.7459 2.06556 32.1102 2.42811C32.837 3.15492 32.837 4.24429 32.1102 4.96939C31.7476 5.33194 31.2931 5.51407 30.8387 5.51407C30.3842 5.51407 29.9314 5.33194 29.5672 4.96939C28.8404 4.3345 28.8404 3.15322 29.5672 2.42811ZM5.14677 31.9311C4.78421 32.2936 4.32974 32.4758 3.87528 32.4758C3.42081 32.4758 2.96804 32.2936 2.60379 31.9311C2.24123 31.6588 2.05911 31.2043 2.05911 30.6596C2.05911 30.2051 2.24123 29.7524 2.60379 29.3881C2.96634 29.0239 3.42081 28.8434 3.87528 28.8434C4.32974 28.8434 4.78251 29.0256 5.14677 29.3881C5.87357 30.1149 5.87357 31.2945 5.14677 31.9294V31.9311ZM17.3119 19.1311L15.4055 17.2247L17.3119 15.3183L19.2183 17.2247L17.3119 19.1311V19.1311ZM45.6353 21.0375L43.7289 19.1311L45.6353 17.2247L47.5417 19.1311L45.6353 21.0375Z" fill="#333333"/>
</g>
<defs>
<clipPath id="clip0">
<rect width="50" height="50" fill="white"/>
</clipPath>
</defs>
</svg>
